# xmcd CD database file
#
# Track frame offsets:
#	150
#	22939
#	45874
#	68612
#
# Disc length: 1218 seconds
#
# Revision: 6
# Processed by: cddbd v1.5.2PL0 Copyright (c) Steve Scherf et al.
# Submitted via: CDex 1.70beta2
#
DISCID=2004c004
DTITLE=青山テルマ - サマーラブ!! feat.RED RICE from 湘南乃風
DYEAR=2010
DGENRE=JPop
TTITLE0=サマーラブ!! feat.RED RICE from 湘南乃風 
TTITLE1=OH BABY 恋してたい 
TTITLE2=サマーラブ!! feat.RED RICE from 湘南乃風(Instrumental) 
TTITLE3=OH BABY 恋してたい(Instrumental) 
EXTD=Accompaniment YEAR: 2010
EXTT0=
EXTT1=
EXTT2=
EXTT3=
PLAYORDER=
